[Header]
FileType HTR
DataType HTRS
FileVersion 1
NumSegments 64
NumFrames 3
DataFrameRate 24
EulerRotationOrder ZYX
CalibrationUnits mm
RotationUnits Degrees
GlobalAxisofGravity Y
BoneLengthAxis Y
ScaleFactor 1.0
[SegmentNames&Hierarchy]
Hips	GLOBAL
Spine	Hips
Spine1	Spine
Spine2	Spine1
Neck	Spine2
Head	Neck
LeftEye	Head
RightEye	Head
LeftShoulder	Spine2
LeftArm	LeftShoulder
LeftForeArm	LeftArm
LeftHand	LeftForeArm
LeftHandThumb1	LeftHand
LeftHandThumb2	LeftHandThumb1
LeftHandThumb3	LeftHandThumb2
LeftHandThumb4	LeftHandThumb3
LeftHandIndex1	LeftHand
LeftHandIndex2	LeftHandIndex1
LeftHandIndex3	LeftHandIndex2
LeftHandIndex4	LeftHandIndex3
LeftHandMiddle1	LeftHand
LeftHandMiddle2	LeftHandMiddle1
LeftHandMiddle3	LeftHandMiddle2
LeftHandMiddle4	LeftHandMiddle3
LeftHandRing1	LeftHand
LeftHandRing2	LeftHandRing1
LeftHandRing3	LeftHandRing2
LeftHandRing4	LeftHandRing3
LeftHandPinky1	LeftHand
LeftHandPinky2	LeftHandPinky1
LeftHandPinky3	LeftHandPinky2
LeftHandPinky4	LeftHandPinky3
RightShoulder	Spine2
RightArm	RightShoulder
RightForeArm	RightArm
RightHand	RightForeArm
RightHandPinky1	RightHand
RightHandPinky2	RightHandPinky1
RightHandPinky3	RightHandPinky2
RightHandPinky4	RightHandPinky3
RightHandRing1	RightHand
RightHandRing2	RightHandRing1
RightHandRing3	RightHandRing2
RightHandRing4	RightHandRing3
RightHandMiddle1	RightHand
RightHandMiddle2	RightHandMiddle1
RightHandMiddle3	RightHandMiddle2
RightHandMiddle4	RightHandMiddle3
RightHandIndex1	RightHand
RightHandIndex2	RightHandIndex1
RightHandIndex3	RightHandIndex2
RightHandIndex4	RightHandIndex3
RightHandThumb1	RightHand
RightHandThumb2	RightHandThumb1
RightHandThumb3	RightHandThumb2
RightHandThumb4	RightHandThumb3
LeftUpLeg	Hips
LeftLeg	LeftUpLeg
LeftFoot	LeftLeg
LeftToeBase	LeftFoot
RightUpLeg	Hips
RightLeg	RightUpLeg
RightFoot	RightLeg
RightToeBase	RightFoot
[BasePosition]
Hips	0	0	0	0	0	0	1
Spine	0	0	0	0	0	0	1
Spine1	0	0	0	0	0	0	1
Spine2	0	0	0	0	0	0	1
Neck	0	0	0	0	0	0	1
Head	0	0	0	0	0	0	1
LeftEye	0	0	0	0	0	0	1
RightEye	0	0	0	0	0	0	1
LeftShoulder	0	0	0	0	0	0	1
LeftArm	0	0	0	0	0	0	1
LeftForeArm	0	0	0	0	0	0	1
LeftHand	0	0	0	0	0	0	1
LeftHandThumb1	0	0	0	0	0	0	1
LeftHandThumb2	0	0	0	0	0	0	1
LeftHandThumb3	0	0	0	0	0	0	1
LeftHandThumb4	0	0	0	0	0	0	1
LeftHandIndex1	0	0	0	0	0	0	1
LeftHandIndex2	0	0	0	0	0	0	1
LeftHandIndex3	0	0	0	0	0	0	1
LeftHandIndex4	0	0	0	0	0	0	1
LeftHandMiddle1	0	0	0	0	0	0	1
LeftHandMiddle2	0	0	0	0	0	0	1
LeftHandMiddle3	0	0	0	0	0	0	1
LeftHandMiddle4	0	0	0	0	0	0	1
LeftHandRing1	0	0	0	0	0	0	1
LeftHandRing2	0	0	0	0	0	0	1
LeftHandRing3	0	0	0	0	0	0	1
LeftHandRing4	0	0	0	0	0	0	1
LeftHandPinky1	0	0	0	0	0	0	1
LeftHandPinky2	0	0	0	0	0	0	1
LeftHandPinky3	0	0	0	0	0	0	1
LeftHandPinky4	0	0	0	0	0	0	1
RightShoulder	0	0	0	0	0	0	1
RightArm	0	0	0	0	0	0	1
RightForeArm	0	0	0	0	0	0	1
RightHand	0	0	0	0	0	0	1
RightHandPinky1	0	0	0	0	0	0	1
RightHandPinky2	0	0	0	0	0	0	1
RightHandPinky3	0	0	0	0	0	0	1
RightHandPinky4	0	0	0	0	0	0	1
RightHandRing1	0	0	0	0	0	0	1
RightHandRing2	0	0	0	0	0	0	1
RightHandRing3	0	0	0	0	0	0	1
RightHandRing4	0	0	0	0	0	0	1
RightHandMiddle1	0	0	0	0	0	0	1
RightHandMiddle2	0	0	0	0	0	0	1
RightHandMiddle3	0	0	0	0	0	0	1
RightHandMiddle4	0	0	0	0	0	0	1
RightHandIndex1	0	0	0	0	0	0	1
RightHandIndex2	0	0	0	0	0	0	1
RightHandIndex3	0	0	0	0	0	0	1
RightHandIndex4	0	0	0	0	0	0	1
RightHandThumb1	0	0	0	0	0	0	1
RightHandThumb2	0	0	0	0	0	0	1
RightHandThumb3	0	0	0	0	0	0	1
RightHandThumb4	0	0	0	0	0	0	1
LeftUpLeg	0	0	0	0	0	0	1
LeftLeg	0	0	0	0	0	0	1
LeftFoot	0	0	0	0	0	0	1
LeftToeBase	0	0	0	0	0	0	1
RightUpLeg	0	0	0	0	0	0	1
RightLeg	0	0	0	0	0	0	1
RightFoot	0	0	0	0	0	0	1
RightToeBase	0	0	0	0	0	0	1
[Hips]
12	100.3472214	1011.682495	62.27866745	2.565998316	-33.68180847	-6.223269463	1.0
13	93.19581604	1013.110474	64.31069183	2.992771149	-36.87808228	-6.452535152	1.0
14	85.15112305	1014.641663	65.82793427	3.43757987	-40.07411575	-6.704174519	1.0
[Spine]
12	0	101.8159943	1.315000057	1.638406277	-6.68164587	3.163602829	1.0
13	0	101.8159943	1.315000057	1.575883269	-6.119990826	2.89819622	1.0
14	0	101.8159943	1.315000057	1.505863547	-5.427785873	2.640922308	1.0
[Spine1]
12	0	100.8349991	-10.00800037	0.7899496555	-7.373800278	4.602873325	1.0
13	0	100.8349991	-10.00800037	0.8296766877	-6.568841457	4.422505856	1.0
14	0	100.8349991	-10.00800037	0.8634952903	-5.522634983	4.345486164	1.0
[Spine2]
12	0	91	-13.73399925	0.9534435272	-6.933731556	4.582146168	1.0
13	0	91	-13.73399925	0.9316238165	-6.127056122	4.397422791	1.0
14	0	91	-13.73399925	0.8984336853	-5.075592995	4.314578056	1.0
[Neck]
12	0	166.7169952	-25.16200066	0.0144784702	-4.32859087	2.085124969	1.0
13	0	166.7169952	-25.16200066	0.2150075287	-4.871508121	1.877806664	1.0
14	0	166.7169952	-25.16200066	0.438806653	-5.296537399	1.527292967	1.0
[Head]
12	0	96.17900085	16.84999847	-5.552260399	-3.20556283	-3.858213902	1.0
13	0	96.17900085	16.84999847	-5.035637856	-6.413470745	-2.316430092	1.0
14	0	96.17900085	16.84999847	-4.337272167	-9.804398537	-0.7545432448	1.0
[LeftEye]
12	30.6760006	64.09500122	92.83599854	0	0	0	1.0
13	30.6760006	64.09500122	92.83599854	0	0	0	1.0
14	30.6760006	64.09500122	92.83599854	0	0	0	1.0
[RightEye]
12	-30.6760006	64.09500122	92.83499908	0	0	0	1.0
13	-30.6760006	64.09500122	92.83499908	0	0	0	1.0
14	-30.6760006	64.09500122	92.83499908	0	0	0	1.0
[LeftShoulder]
12	45.70400238	109.4599991	-26.28000069	4.708396912	-15.26592827	-3.596913576	1.0
13	45.70400238	109.4599991	-26.28000069	4.742226124	-14.80474091	-3.978903055	1.0
14	45.70400238	109.4599991	-26.28000069	4.784286499	-14.302948	-4.470557213	1.0
[LeftArm]
12	105.923996	-5.24600029	-22.32099915	-5.773526192	10.38014603	-86.56149292	1.0
13	105.923996	-5.24600029	-22.32099915	-5.710586071	9.337783813	-85.50356293	1.0
14	105.923996	-5.24600029	-22.32099915	-5.693967342	8.145771027	-84.23960114	1.0
[LeftForeArm]
12	278.414978	-0.0009999999311	0	-7.060530152e-07	-11.46229458	-0.0002052711061	1.0
13	278.414978	-0.0009999999311	0	1.111867221e-07	-12.40671825	-0.0002106359025	1.0
14	278.414978	-0.0009999999311	0	1.898819846e-06	-13.42248058	-0.0002176072448	1.0
[LeftHand]
12	283.2879944	0	0	-26.37254143	2.489546061	-10.65725517	1.0
13	283.2879944	0	0	-26.84709358	0.1911607534	-9.277433395	1.0
14	283.2879944	0	0	-27.36036301	-2.38214016	-7.464988232	1.0
[LeftHandThumb1]
12	24.6609993	-15.75	26.8239994	18.07993889	-4.017956734	10.15157318	1.0
13	24.6609993	-15.75	26.8239994	17.97977257	-4.191162109	10.11894703	1.0
14	24.6609993	-15.75	26.8239994	17.91300774	-4.295894623	10.10602474	1.0
[LeftHandThumb2]
12	32.29800034	-18.64699936	18.64699936	-0.4872302413	32.82714081	-2.867950678	1.0
13	32.29800034	-18.64699936	18.64699936	-0.6168847084	32.87108612	-2.938990831	1.0
14	32.29800034	-18.64699936	18.64699936	-0.7278441191	32.85765839	-2.986043215	1.0
[LeftHandThumb3]
12	26.52600098	-15.31499958	15.31499958	2.118365526	9.413145065	-0.04393753409	1.0
13	26.52600098	-15.31499958	15.31499958	2.115917206	9.405538559	-0.04190661013	1.0
14	26.52600098	-15.31499958	15.31499958	2.113782644	9.398934364	-0.04014443606	1.0
[LeftHandThumb4]
12	19.54599953	-11.28499985	11.28499985	0	0	0	1.0
13	19.54599953	-11.28499985	11.28499985	0	0	0	1.0
14	19.54599953	-11.28499985	11.28499985	0	0	0	1.0
[LeftHandIndex1]
12	91.09299469	-5.170999527	22.60099792	-0.2965112925	4.789284229	-7.992591381	1.0
13	91.09299469	-5.170999527	22.60099792	-0.3015443385	4.765185833	-7.994534016	1.0
14	91.09299469	-5.170999527	22.60099792	-0.2981502712	4.726259708	-7.90678215	1.0
[LeftHandIndex2]
12	36.76399994	0	0	-0.6269485354	2.768095255	-20.54663658	1.0
13	36.76399994	0	0	-0.6262376308	2.766756058	-20.53172112	1.0
14	36.76399994	0	0	-0.6253560185	2.765090942	-20.51317787	1.0
[LeftHandIndex3]
12	28.83100128	0	0	-0.1092745662	0.8029305339	-10.14425564	1.0
13	28.83100128	0	0	-0.1090094224	0.8014585972	-10.12936878	1.0
14	28.83100128	0	0	-0.1086791605	0.7996295094	-10.11086178	1.0
[LeftHandIndex4]
12	23.92700005	0	0	0	0	0	1.0
13	23.92700005	0	0	0	0	0	1.0
14	23.92700005	0	0	0	0	0	1.0
[LeftHandMiddle1]
12	95.33399963	0	0	-1.535521865	8.675076485	-15.99641991	1.0
13	95.33399963	0	0	-1.534904957	8.671490669	-15.99164486	1.0
14	95.33399963	0	0	-1.523745298	8.657006264	-15.89955902	1.0
[LeftHandMiddle2]
12	36.98199844	0	0	-1.432698965	3.829683781	-33.50240326	1.0
13	36.98199844	0	0	-1.433312297	3.830346584	-33.51133347	1.0
14	36.98199844	0	0	-1.433099389	3.830114603	-33.50822067	1.0
[LeftHandMiddle3]
12	29.50900078	0	0	-0.1509605199	1.493773222	-12.3487978	1.0
13	29.50900078	0	0	-0.1511629224	1.494630337	-12.3575983	1.0
14	29.50900078	0	0	-0.1510864943	1.494315863	-12.35428333	1.0
[LeftHandMiddle4]
12	28.3390007	0	0	0	0	0	1.0
13	28.3390007	0	0	0	0	0	1.0
14	28.3390007	0	0	0	0	0	1.0
[LeftHandRing1]
12	91.04499817	-0.4390000105	-18.65100098	-3.035342216	11.51859856	-27.06254768	1.0
13	91.04499817	-0.4390000105	-18.65100098	-3.033756971	11.50278378	-27.05629539	1.0
14	91.04499817	-0.4390000105	-18.65100098	-3.022372961	11.49261475	-26.97258949	1.0
[LeftHandRing2]
12	31.54000092	0	0	-1.201580405	4.060742855	-40.26875687	1.0
13	31.54000092	0	0	-1.200495362	4.059352875	-40.25099182	1.0
14	31.54000092	0	0	-1.199061513	4.057517052	-40.22748566	1.0
[LeftHandRing3]
12	29.37700081	0	0	-0.0937942937	1.909727454	-19.40356445	1.0
13	29.37700081	0	0	-0.09336495399	1.907971025	-19.38536263	1.0
14	29.37700081	0	0	-0.09280581027	1.905692697	-19.36174965	1.0
[LeftHandRing4]
12	26.47500038	0	0	0	0	0	1.0
13	26.47500038	0	0	0	0	0	1.0
14	26.47500038	0	0	0	0	0	1.0
[LeftHandPinky1]
12	80.77799988	-4.887000084	-38.06099701	-5.211647511	15.96779156	-36.92184448	1.0
13	80.77799988	-4.887000084	-38.06099701	-5.209285736	15.9140873	-36.9348793	1.0
14	80.77799988	-4.887000084	-38.06099701	-5.198810577	15.88954544	-36.87259293	1.0
[LeftHandPinky2]
12	36	0	0	-1.942843556	3.815103054	-45.62643814	1.0
13	36	0	0	-1.941536307	3.813956976	-45.60906219	1.0
14	36	0	0	-1.939828753	3.812459707	-45.58638	1.0
[LeftHandPinky3]
12	21.14200211	0	0	-0.5417798162	2.83044529	-20.49071503	1.0
13	21.14200211	0	0	-0.5410339236	2.828882694	-20.47338295	1.0
14	21.14200211	0	0	-0.5400621295	2.826844454	-20.4507618	1.0
[LeftHandPinky4]
12	19.75699997	0	0	0	0	0	1.0
13	19.75699997	0	0	0	0	0	1.0
14	19.75699997	0	0	0	0	0	1.0
[RightShoulder]
12	-45.70000076	109.4620056	-26.28000069	4.994465828	3.740131855	6.696191788	1.0
13	-45.70000076	109.4620056	-26.28000069	4.903259754	3.650636673	6.277635574	1.0
14	-45.70000076	109.4620056	-26.28000069	4.802112103	3.461279869	5.798258305	1.0
[RightArm]
12	-105.9280014	-5.248000145	-22.32099915	-10.79451084	-3.31125927	67.67006683	1.0
13	-105.9280014	-5.248000145	-22.32099915	-9.154545784	-2.937388659	68.88063049	1.0
14	-105.9280014	-5.248000145	-22.32099915	-7.227778912	-2.3342731	70.16059113	1.0
[RightForeArm]
12	-278.414978	0	0	7.355053185e-06	21.6450901	1.533670547e-05	1.0
13	-278.414978	0	0	2.5684094e-06	18.0304451	5.511261861e-06	1.0
14	-278.414978	0	0	-3.690688345e-06	13.97297287	-8.866823919e-06	1.0
[RightHand]
12	-283.2879944	0	0.0009999999311	-11.03123951	2.847174644	6.257936478	1.0
13	-283.2879944	0	0.0009999999311	-9.588129997	-0.01269797515	9.036685944	1.0
14	-283.2879944	0	0.0009999999311	-8.122426987	-3.211289883	11.99813557	1.0
[RightHandPinky1]
12	-80.76699829	-4.885000229	-38.06000137	-5.285697937	-16.20071983	37.33532333	1.0
13	-80.76699829	-4.885000229	-38.06000137	-5.25628376	-16.31487083	36.98502731	1.0
14	-80.76699829	-4.885000229	-38.06000137	-5.210771084	-16.44099998	36.50364304	1.0
[RightHandPinky2]
12	-36	0	0.0009999999311	-1.936044812	-3.808650017	45.55402374	1.0
13	-36	0	0.0009999999311	-1.940932512	-3.812922239	45.61915207	1.0
14	-36	0	0.0009999999311	-1.947550416	-3.818705082	45.70734024	1.0
[RightHandPinky3]
12	-21.14200211	0	0	-0.7604964972	0.06448247284	22.01543236	1.0
13	-21.14200211	0	0	-0.7634500265	0.05869197473	22.08023262	1.0
14	-21.14200211	0	0	-0.7674503326	0.05085072666	22.16798401	1.0
[RightHandPinky4]
12	-19.75699997	0	0	0	0	0	1.0
13	-19.75699997	0	0	0	0	0	1.0
14	-19.75699997	0	0	0	0	0	1.0
[RightHandRing1]
12	-91.03599548	-0.4390000105	-18.65100098	-3.028434038	-11.42588329	27.04455757	1.0
13	-91.03599548	-0.4390000105	-18.65100098	-2.984919548	-11.4395752	26.70406914	1.0
14	-91.03599548	-0.4390000105	-18.65100098	-2.924869776	-11.45534897	26.23509979	1.0
[RightHandRing2]
12	-31.54000092	0	0	-1.198492289	-4.056517601	40.22129059	1.0
13	-31.54000092	0	0	-1.19609201	-4.053447723	40.18188095	1.0
14	-31.54000092	0	0	-1.193528056	-4.050167084	40.13972855	1.0
[RightHandRing3]
12	-29.37700081	0	0	-0.138676554	0.08837714791	17.83256149	1.0
13	-29.37700081	0	0	-0.1378675252	0.0921368897	17.79393768	1.0
14	-29.37700081	0	0	-0.137005493	0.09614790231	17.7527256	1.0
[RightHandRing4]
12	-26.47500038	0	0	0	0	0	1.0
13	-26.47500038	0	0	0	0	0	1.0
14	-26.47500038	0	0	0	0	0	1.0
[RightHandMiddle1]
12	-95.32500458	0	0	-1.531465769	-8.553174019	15.97269058	1.0
13	-95.32500458	0	0	-1.484057903	-8.683051109	15.5645504	1.0
14	-95.32500458	0	0	-1.418042421	-8.829889297	14.99851513	1.0
[RightHandMiddle2]
12	-36.98199844	0	0	-1.432341814	-3.829000711	33.49919891	1.0
13	-36.98199844	0	0	-1.42945683	-3.825871229	33.45707321	1.0
14	-36.98199844	0	0	-1.426290035	-3.822431564	33.41080475	1.0
[RightHandMiddle3]
12	-29.50900078	0	0	-0.255779922	-1.685788274	15.97871685	1.0
13	-29.50900078	0	0	-0.2546322942	-1.682062864	15.93945408	1.0
14	-29.50900078	0	0	-0.2533797622	-1.678000093	15.89659882	1.0
[RightHandMiddle4]
12	-28.3390007	0	0.0009999999311	0	0	0	1.0
13	-28.3390007	0	0.0009999999311	0	0	0	1.0
14	-28.3390007	0	0.0009999999311	0	0	0	1.0
[RightHandIndex1]
12	-91.08300018	-5.167999744	22.60099792	-0.2977618575	-4.766373634	8.180177689	1.0
13	-91.08300018	-5.167999744	22.60099792	-0.1987186968	-4.740495682	7.448967934	1.0
14	-91.08300018	-5.167999744	22.60099792	-0.07362573594	-4.692369938	6.476111412	1.0
[RightHandIndex2]
12	-36.76399994	0	0	-0.6259093881	-2.765934229	20.52586746	1.0
13	-36.76399994	0	0	-0.6275146604	-2.768904924	20.55908203	1.0
14	-36.76399994	0	0	-0.6298288107	-2.773191929	20.60695839	1.0
[RightHandIndex3]
12	-28.83100128	0	0	-0.2373821735	-0.1528766006	13.79752827	1.0
13	-28.83100128	0	0	-0.2381800562	-0.1561148018	13.83067799	1.0
14	-28.83100128	0	0	-0.2393280864	-0.160778299	13.87845516	1.0
[RightHandIndex4]
12	-23.92700005	0	0	0	0	0	1.0
13	-23.92700005	0	0	0	0	0	1.0
14	-23.92700005	0	0	0	0	0	1.0
[RightHandThumb1]
12	-24.64799881	-15.72700024	26.82600021	16.9322834	5.771304131	-10.67107677	1.0
13	-24.64799881	-15.72700024	26.82600021	17.42224884	4.724595547	-10.5489645	1.0
14	-24.64799881	-15.72700024	26.82600021	18.01211166	3.441726923	-10.41639042	1.0
[RightHandThumb2]
12	-32.29800034	-18.64699936	18.64699936	-0.4348546267	-33.02528763	2.638818502	1.0
13	-32.29800034	-18.64699936	18.64699936	-0.4398360252	-32.63875961	2.778534651	1.0
14	-32.29800034	-18.64699936	18.64699936	-0.4420316219	-32.13901901	2.934878349	1.0
[RightHandThumb3]
12	-26.52600098	-15.31399918	15.31399918	1.844192505	-8.339186668	-0.3984932899	1.0
13	-26.52600098	-15.31399918	15.31399918	1.846331	-8.205931664	-0.1458438486	1.0
14	-26.52600098	-15.31399918	15.31399918	1.848614216	-8.046610832	0.1395384818	1.0
[RightHandThumb4]
12	-19.54599953	-11.28499985	11.28499985	0	0	0	1.0
13	-19.54599953	-11.28499985	11.28499985	0	0	0	1.0
14	-19.54599953	-11.28499985	11.28499985	0	0	0	1.0
[LeftUpLeg]
12	82.07800293	-67.51699829	-15.99599934	-12.87173367	29.12372017	5.444975376	1.0
13	82.07800293	-67.51699829	-15.99599934	-11.83413601	30.57643127	5.211427689	1.0
14	82.07800293	-67.51699829	-15.99599934	-10.76391697	32.04768372	4.930300236	1.0
[LeftLeg]
12	0	-443.7049866	2.845999956	29.32212448	6.136871338	9.13506031	1.0
13	0	-443.7049866	2.845999956	28.00334549	5.853573799	10.13293457	1.0
14	0	-443.7049866	2.845999956	26.52070236	5.53984642	11.2752018	1.0
[LeftFoot]
12	0	-444.2789917	-29.8219986	-15.78859806	23.61528778	-13.84490395	1.0
13	0	-444.2789917	-29.8219986	-15.64023495	24.89240456	-15.12548351	1.0
14	0	-444.2789917	-29.8219986	-15.34663963	26.01836777	-16.41870308	1.0
[LeftToeBase]
12	0	-87.28699493	107.1060028	-0.6693445444	1.262540991e-06	-4.306516477e-09	1.0
13	0	-87.28699493	107.1060028	-0.5280936956	4.679529866e-06	-6.939331456e-07	1.0
14	0	-87.28699493	107.1060028	-0.3369193673	9.337821211e-06	-1.145212309e-06	1.0
[RightUpLeg]
12	-82.07800293	-67.51699829	-15.99599934	-9.358055115	-11.02290058	0.2050915658	1.0
13	-82.07800293	-67.51699829	-15.99599934	-9.182283401	-15.09893131	1.336345911	1.0
14	-82.07800293	-67.51699829	-15.99599934	-8.999827385	-19.21485519	2.71804595	1.0
[RightLeg]
12	0	-443.7049866	2.861999989	21.91952896	4.318041325	12.65016556	1.0
13	0	-443.7049866	2.861999989	21.74114227	3.827063084	11.28106213	1.0
14	0	-443.7049866	2.861999989	21.56763268	3.165328026	9.460464478	1.0
[RightFoot]
12	0	-444.2770081	-29.83799934	-9.987425804	-16.62018776	-5.379392624	1.0
13	0	-444.2770081	-29.83799934	-10.12393188	-17.54460716	-5.373239517	1.0
14	0	-444.2770081	-29.83799934	-10.48265743	-18.09870529	-5.121038437	1.0
[RightToeBase]
12	0	-87.28699493	107.1060028	0.5345290303	-0.006462704856	0.4630224705	1.0
13	0	-87.28699493	107.1060028	0.6886928678	-0.005158933345	0.3687035739	1.0
14	0	-87.28699493	107.1060028	0.4169490933	-0.002421590267	0.1714907438	1.0
[EndOfFile]
